<svg xmlns="http://www.w3.org/2000/svg" viewBox="0 0 171 171"><g fill="none" stroke="#7f7f7f" stroke-width="2"><path d="M36.6 71.75q1.84-4.82 6.22-9.1.75-.74-.3-.71l-2.49.07a2.49 2.49 0 0 0-1.85.9c-8.01 9.72-9.12 22.66-2.75 33.49 1.71 2.92 3.41 5.35 7.01 4.65q.64-.12.21-.61-11.95-13.2-6.05-28.69M122.46 62.58c10.36 11.09 10.87 26.72.16 37.52q-.95.95.4.95h1.6q1.8 0 2.91-1.42c8.63-11.02 8.4-26.19-.74-36.98a1.61 1.58-18.1 0 0-1.13-.56l-2.9-.15q-.95-.06-.3.64M57.896 93.27a11.77 10.57 90.8 0 0 10.733-11.621A11.77 10.57 90.8 0 0 58.224 69.73a11.77 10.57 90.8 0 0-10.733 11.621A11.77 10.57 90.8 0 0 57.896 93.27M117.213 79.385a9.32 9.32 0 0 0-9.353-9.288l-1.72.006a9.32 9.32 0 0 0-9.287 9.353l.014 4.18a9.32 9.32 0 0 0 9.353 9.287l1.72-.006a9.32 9.32 0 0 0 9.287-9.353l-.014-4.18M95.51 97.968a.97.97 0 0 0-.972-.969l-23.7.042a.97.97 0 0 0-.968.971v.02a.97.97 0 0 0 .972.969l23.7-.042a.97.97 0 0 0 .968-.971v-.02" vector-effect="non-scaling-stroke"/><path d="M58.05 90.19a8.7 6.79 90 0 0 6.79-8.7 8.7 6.79 90 0 0-6.79-8.7 8.7 6.79 90 0 0-6.79 8.7 8.7 6.79 90 0 0 6.79 8.7M113.45 79.03a5.94 5.94 0 0 0-5.94-5.94h-.94a5.94 5.94 0 0 0-5.94 5.94v4.92a5.94 5.94 0 0 0 5.94 5.94h.94a5.94 5.94 0 0 0 5.94-5.94v-4.92" vector-effect="non-scaling-stroke"/></g><path d="M0 0h171v171H0V0Zm36.6 71.75q1.84-4.82 6.22-9.1.75-.74-.3-.71l-2.49.07a2.49 2.49 0 0 0-1.85.9c-8.01 9.72-9.12 22.66-2.75 33.49 1.71 2.92 3.41 5.35 7.01 4.65q.64-.12.21-.61-11.95-13.2-6.05-28.69Zm85.86-9.17c10.36 11.09 10.87 26.72.16 37.52q-.95.95.4.95h1.6q1.8 0 2.91-1.42c8.63-11.02 8.4-26.19-.74-36.98a1.61 1.58-18.1 0 0-1.13-.56l-2.9-.15q-.95-.06-.3.64ZM57.896 93.269a11.77 10.57 90.8 0 0 10.733-11.621A11.77 10.57 90.8 0 0 58.224 69.73a11.77 10.57 90.8 0 0-10.733 11.621A11.77 10.57 90.8 0 0 57.896 93.27Zm59.317-13.885a9.32 9.32 0 0 0-9.353-9.287l-1.72.006a9.32 9.32 0 0 0-9.287 9.353l.014 4.18a9.32 9.32 0 0 0 9.353 9.287l1.72-.006a9.32 9.32 0 0 0 9.287-9.353l-.014-4.18ZM95.51 97.969a.97.97 0 0 0-.972-.969l-23.7.042a.97.97 0 0 0-.968.971v.02a.97.97 0 0 0 .972.969l23.7-.042a.97.97 0 0 0 .968-.971v-.02Z"/><path fill="#fefefe" d="M36.6 71.75q-5.9 15.49 6.05 28.69.43.49-.21.61c-3.6.7-5.3-1.73-7.01-4.65-6.37-10.83-5.26-23.77 2.75-33.49a2.49 2.49 0 0 1 1.85-.9l2.49-.07q1.05-.03.3.71-4.38 4.28-6.22 9.1ZM122.62 100.1c10.71-10.8 10.2-26.43-.16-37.52q-.65-.7.3-.64l2.9.15a1.61 1.58-18.1 0 1 1.13.56c9.14 10.79 9.37 25.96.74 36.98q-1.11 1.42-2.91 1.42h-1.6q-1.35 0-.4-.95Z"/><path fill="#fefefe" d="M57.896 93.269A11.77 10.57 90.8 0 1 47.49 81.352a11.77 10.57 90.8 0 1 10.733-11.62A11.77 10.57 90.8 0 1 68.63 81.647a11.77 10.57 90.8 0 1-10.733 11.62Zm.154-3.079a8.7 6.79 90 0 0 6.79-8.7 8.7 6.79 90 0 0-6.79-8.7 8.7 6.79 90 0 0-6.79 8.7 8.7 6.79 90 0 0 6.79 8.7ZM117.227 83.564a9.32 9.32 0 0 1-9.287 9.353l-1.72.006a9.32 9.32 0 0 1-9.353-9.288l-.014-4.18a9.32 9.32 0 0 1 9.287-9.352l1.72-.006a9.32 9.32 0 0 1 9.353 9.288l.014 4.18Zm-3.777-4.534a5.94 5.94 0 0 0-5.94-5.94h-.94a5.94 5.94 0 0 0-5.94 5.94v4.92a5.94 5.94 0 0 0 5.94 5.94h.94a5.94 5.94 0 0 0 5.94-5.94v-4.92Z"/><ellipse rx="8.7" ry="6.79" transform="rotate(90 -11.72 69.77)"/><rect width="12.82" height="16.8" x="100.63" y="73.09" rx="5.94"/><rect width="25.64" height="1.96" x="-12.82" y="-.98" fill="#fefefe" rx=".97" transform="rotate(-.1 56191.195 -47328.868)"/></svg>
